# xmcd
#
# Track frame offsets: 
#        150
#        6740
#        19470
#        29983
#        54216
#        71569
#        80139
#        104607
#        124652
#        142293
#        170011
#        176377
#        197169
#        220030
#        235459
#        253978
#        265409
#        266982
#        290523
#        302380
#        332298
#
# Disc length: 4720 seconds
#
# Revision: 1
# Processed by: cddbd v1.5.2PL0 Copyright (c) Steve Scherf et al.
# Submitted via: ExactAudioCopyFreeDBPlugin 1.0
#
DISCID=51126e15
DTITLE=OutKast - Speakerboxxx - The Love Below
DYEAR=2003
DGENRE=Rhythm and Blues
TTITLE0=The Love Below (Intro)
TTITLE1=Love Hater
TTITLE2=God (Interlude)
TTITLE3=Happy Valentine's Day
TTITLE4=Spread
TTITLE5=Where Are My Panties?
TTITLE6=Prototype
TTITLE7=She Lives in My Lap (ft Rosario Dawson)
TTITLE8=Hey Ya!
TTITLE9=Roses
TTITLE10=Good Day, Good Sir
TTITLE11=Behold a Lady
TTITLE12=Pink and Blue
TTITLE13=Love in War
TTITLE14=She's Alive
TTITLE15=Dracula's Wedding (ft Kelis)
TTITLE16=The Letter
TTITLE17=My Favorite Things
TTITLE18=Take Off Your Cool (ft Norah Jones)
TTITLE19=Vibrate
TTITLE20=A Life in the Day of Benjamin André (incomplete)
EXTD=
EXTT0=
EXTT1=
EXTT2=
EXTT3=
EXTT4=
EXTT5=
EXTT6=
EXTT7=
EXTT8=
EXTT9=
EXTT10=
EXTT11=
EXTT12=
EXTT13=
EXTT14=
EXTT15=
EXTT16=
EXTT17=
EXTT18=
EXTT19=
EXTT20=
PLAYORDER=
